<svg width="134" height="138" viewBox="0 0 134 138" fill="none" xmlns="http://www.w3.org/2000/svg">
<g filter="url(#filter0_d_149_179)">
<g clip-path="url(#clip0_149_179)">
<path d="M16 8V110H118V8H16ZM47.4262 32.9288C63.0322 19.8524 86.7676 25.0442 95.509 43.4348C100.895 54.7568 100.119 65.8952 93.3364 76.442C89.8684 81.8378 84.9826 85.7342 78.9442 88.0598C78.4852 88.2332 77.8018 88.3352 77.404 88.121C73.7524 86.1422 70.5598 83.6228 68.8462 79.706C68.326 78.5126 68.0302 77.1152 68.02 75.8096C67.9894 72.3416 70.7536 70.0262 74.14 70.73C76.2616 71.1686 78.2812 72.1274 80.3926 72.6068C82.1164 73.0046 83.9728 73.4126 85.6864 73.178C88.6852 72.77 90.4702 70.577 91.3372 66.9866C92.7448 67.211 93.2038 66.14 93.7036 65.0996C95.152 62.1212 95.815 58.9796 95.4784 55.6748C95.1112 52.0742 92.9794 49.6874 89.8378 48.1676C87.8794 47.219 85.768 46.5662 83.8198 45.587C82.4122 44.8832 80.8618 44.1386 79.8724 42.9758C73.2934 35.2238 63.4708 34.9892 55.6576 38.3348C47.926 41.6396 43.5502 47.8718 41.3266 55.7054C40.5106 58.592 40.3066 61.652 39.715 64.6202C39.3682 66.3644 38.8276 68.078 38.3686 69.8018C38.1238 69.8018 37.879 69.7814 37.6444 69.7712C37.0936 67.4252 36.3184 65.1098 36.0124 62.7332C34.4926 50.7788 38.1544 40.6604 47.416 32.9084L47.4262 32.9288ZM41.4184 76.493C40.99 75.8912 40.9492 75.4526 41.4184 74.8202C44.0704 71.1788 45.6922 67.0478 47.0794 62.7842C48.3442 58.9184 49.4866 54.9812 51.1696 51.2888C54.4438 44.0876 60.1966 40.946 68.122 41.4254C71.8144 41.6498 74.8744 43.0268 77.5774 45.587C79.0054 46.9334 80.8516 47.9024 82.606 48.851C84.0442 49.616 85.6354 50.0852 87.145 50.7176C92.4286 52.9208 92.6938 55.6952 92.143 60.1424C92.0206 61.1624 91.6636 62.1926 91.2454 63.1412C90.6844 64.4162 89.6848 64.4162 88.8994 63.2942C88.7566 63.08 88.1956 62.9678 87.9304 63.0698C87.451 63.2534 87.043 63.641 86.5534 63.9674C86.3188 63.6206 86.125 63.4064 85.9924 63.1514C85.6354 62.4578 85.258 62.1926 84.5236 62.7638C84.2788 62.9474 83.5954 62.9882 83.4424 62.8046C81.6472 60.632 79.0156 60.224 76.5472 59.4998C75.823 59.2856 75.0274 59.306 74.2624 59.2244C74.242 59.3264 74.2216 59.4284 74.191 59.5304C75.1192 59.9282 76.129 60.2036 76.9756 60.7442C78.6994 61.856 80.311 63.1616 82.0348 64.2734C82.5958 64.6304 83.3914 64.6304 84.0646 64.8344C84.3706 64.9262 84.8296 65.0996 84.901 65.324C85.207 66.3746 85.8496 66.4256 86.7472 66.2012C88.012 65.8952 88.267 66.191 88.0222 67.4864C87.6958 69.2 85.9312 70.475 83.9116 70.2098C82.555 70.0262 81.178 69.659 79.9234 69.1082C76.3024 67.5272 72.5692 66.5786 68.632 66.2216C64.2052 65.8238 60.8188 63.8042 59.452 59.1734C58.3198 62.3354 60.727 66.2318 65.3986 68.8226C60.6556 76.0238 61.3186 83.1536 66.133 90.2936C62.7058 90.1406 59.656 89.498 56.6776 88.4168C50.3026 86.0912 45.2944 82.0214 41.4184 76.5032V76.493Z" fill="#803E30"/>
<path d="M86.5633 63.9777C86.3287 63.6309 86.1349 63.4167 86.0023 63.1617C85.6453 62.4681 85.2679 62.2029 84.5335 62.7741C84.2887 62.9577 83.6053 62.9985 83.4523 62.8149C81.6571 60.6423 79.0255 60.2343 76.5571 59.5101C75.8329 59.2959 75.0373 59.3163 74.2723 59.2347C74.2519 59.3367 74.2315 59.4387 74.2009 59.5407C75.1291 59.9385 76.1389 60.2139 76.9855 60.7545C78.7093 61.8663 80.3209 63.1719 82.0447 64.2837C82.6057 64.6407 83.4013 64.6407 84.0745 64.8447C84.3805 64.9365 84.8395 65.1099 84.9109 65.3343C85.2169 66.3849 85.8595 66.4359 86.7571 66.2115C88.0219 65.9055 88.2769 66.2013 88.0321 67.4967C87.7057 69.2103 85.9411 70.4853 83.9215 70.2201C82.5649 70.0365 81.1879 69.6693 79.9333 69.1185C76.3123 67.5375 72.5791 66.5889 68.6419 66.2319C64.2151 65.8341 60.8287 63.8145 59.4619 59.1837C58.3297 62.3457 60.7369 66.2421 65.4085 68.8329C60.6655 76.0341 61.3285 83.1639 66.1429 90.3039C62.7157 90.1509 59.6659 89.5083 56.6875 88.4271C50.3125 86.1015 45.3043 82.0317 41.4283 76.5135C40.9999 75.9117 40.9591 75.4731 41.4283 74.8407C44.0803 71.1993 45.7021 67.0683 47.0893 62.8047C48.3541 58.9389 49.4965 55.0017 51.1795 51.3093C54.4537 44.1081 60.2065 40.9665 68.1319 41.4459C71.8243 41.6703 74.8843 43.0473 77.5873 45.6075C79.0153 46.9539 80.8615 47.9229 82.6159 48.8715C84.0541 49.6365 85.6453 50.1057 87.1549 50.7381C92.4385 52.9413 92.7037 55.7157 92.1529 60.1629C92.0305 61.1829 91.6735 62.2131 91.2553 63.1617C90.6943 64.4367 89.6947 64.4367 88.9093 63.3147C88.7665 63.1005 88.2055 62.9883 87.9403 63.0903C87.4609 63.2739 87.0529 63.6615 86.5633 63.9879V63.9777ZM76.9039 51.3603C75.4657 49.4529 74.0275 47.8821 71.5591 47.8821C71.2123 47.8821 70.6309 47.9841 70.5799 48.1677C70.4779 48.4941 70.6003 48.9837 70.7941 49.2999C71.8243 51.0135 74.4049 51.9315 76.9039 51.3501V51.3603Z" fill="#4B2427"/>
<path d="M37.6547 69.801C37.1039 67.455 36.3287 65.1396 36.0227 62.763C34.5029 50.8086 38.1647 40.6902 47.4263 32.9382C63.0323 19.8618 86.7677 25.0536 95.5091 43.4442C100.895 54.7662 100.12 65.9046 93.3365 76.4514C89.8685 81.8472 84.9827 85.7436 78.9443 88.0692C78.4853 88.2426 77.8019 88.3446 77.4041 88.1304C73.7525 86.1516 70.5599 83.6322 68.8463 79.7154C68.3261 78.522 68.0303 77.1246 68.0201 75.819C67.9895 72.351 70.7537 70.0356 74.1401 70.7394C76.2617 71.178 78.2813 72.1368 80.3927 72.6162C82.1165 73.014 83.9729 73.422 85.6865 73.1874C88.6853 72.7794 90.4703 70.5864 91.3373 66.996C92.7449 67.2204 93.2039 66.1494 93.7037 65.109C95.1521 62.1306 95.8151 58.989 95.4785 55.6842C95.1113 52.0836 92.9795 49.6968 89.8379 48.177C87.8795 47.2284 85.7681 46.5756 83.8199 45.5964C82.4123 44.8926 80.8619 44.148 79.8725 42.9852C73.2935 35.2332 63.4709 34.9986 55.6577 38.3442C47.9261 41.649 43.5503 47.8812 41.3267 55.7148C40.5107 58.6014 40.3067 61.6614 39.7151 64.6296C39.3683 66.3738 38.8277 68.0874 38.3687 69.8112C38.1239 69.8112 37.8791 69.7908 37.6445 69.7806L37.6547 69.801Z" fill="#4B2427"/>
<path d="M76.9045 51.3606C74.3953 51.9318 71.8147 51.024 70.7947 49.3104C70.6009 48.9942 70.4785 48.5046 70.5805 48.1782C70.6417 47.9946 71.2231 47.8926 71.5597 47.8926C74.0179 47.8926 75.4561 49.4634 76.9045 51.3708V51.3606Z" fill="#803E30"/>
</g>
<rect x="28" y="18" width="78" height="78" rx="14" stroke="#4B2427" stroke-width="2" shape-rendering="crispEdges"/>
</g>
<defs>
<filter id="filter0_d_149_179" x="-2" y="0" width="138" height="138" filterUnits="userSpaceOnUse" color-interpolation-filters="sRGB">
<feFlood flood-opacity="0" result="BackgroundImageFix"/>
<feColorMatrix in="SourceAlpha" type="matrix" values="0 0 0 0 0 0 0 0 0 0 0 0 0 0 0 0 0 0 127 0" result="hardAlpha"/>
<feMorphology radius="11" operator="dilate" in="SourceAlpha" result="effect1_dropShadow_149_179"/>
<feOffset dy="12"/>
<feGaussianBlur stdDeviation="9"/>
<feComposite in2="hardAlpha" operator="out"/>
<feColorMatrix type="matrix" values="0 0 0 0 0.00392157 0 0 0 0 0.00784314 0 0 0 0 0.0392157 0 0 0 0.45 0"/>
<feBlend mode="normal" in2="BackgroundImageFix" result="effect1_dropShadow_149_179"/>
<feBlend mode="normal" in="SourceGraphic" in2="effect1_dropShadow_149_179" result="shape"/>
</filter>
<clipPath id="clip0_149_179">
<rect x="27" y="17" width="80" height="80" rx="15" fill="white"/>
</clipPath>
</defs>
</svg>
