<svg width="134" height="119" viewBox="0 0 134 119" fill="none" xmlns="http://www.w3.org/2000/svg">
<g filter="url(#filter0_d_149_189)">
<g clip-path="url(#clip0_149_189)">
<path d="M14 113V7H120V113H14ZM100.761 58.463C100.846 53.3856 100.061 48.6898 98.2912 44.1424C90.85 25.0942 68.3674 15.9146 49.5842 27.0976C33.6206 36.6058 27.7694 56.5974 36.2388 73.144C42.4186 85.2068 52.6052 91.5774 66.0884 92.1604C74.1762 92.5102 81.4902 89.7224 87.7654 84.5708C96.0334 77.7762 100.22 68.8934 100.761 58.4736V58.463Z" fill="#4B2427"/>
<path d="M100.761 58.4628C100.221 68.8932 96.0336 77.7654 87.7656 84.56C81.501 89.7116 74.1764 92.4994 66.0886 92.1496C52.6054 91.5772 42.4082 85.196 36.239 73.1332C27.7696 56.5866 33.6208 36.595 49.5844 27.0868C68.3676 15.9038 90.8502 25.0834 98.2914 44.1316C100.062 48.679 100.846 53.3748 100.761 58.4522V58.4628ZM52.4888 66.2856C52.4464 66.4552 52.3934 66.6248 52.351 66.7944C52.139 66.8156 51.9164 66.8368 51.7044 66.8474C47.3054 67.2502 43.7862 69.1264 41.4754 73.006C40.956 73.8858 40.9136 74.6172 41.5496 75.5182C46.7012 82.8428 53.6124 87.5492 62.3362 89.542C63.9156 89.9024 65.5586 89.9766 67.1698 90.178C67.2016 90.0508 67.244 89.9236 67.2758 89.7964C66.9896 89.489 66.714 89.171 66.4278 88.8636C62.7602 84.9946 63.7884 79.0056 68.5266 76.5782C70.9752 75.3168 73.5616 75.2638 76.201 75.5924C77.6744 75.7832 79.1372 76.08 80.6106 76.186C82.8154 76.3344 84.7976 75.762 86.4194 73.96C84.5326 73.059 82.7836 72.2216 80.759 71.2464C84.4478 69.7412 87.2144 70.6104 89.5676 73.271C90.8502 70.9814 91.4332 68.819 91.3696 66.4976C91.2742 62.618 88.6348 60.5934 85.423 58.908C88.338 55.7916 91.3696 53.0356 92.0798 48.6154C91.7088 48.7002 91.5074 48.6896 91.4014 48.785C87.9564 51.7424 83.7906 53.3642 79.699 55.1238C79.2856 55.304 78.6814 55.5478 78.3634 55.3782C76.6038 54.456 74.8972 53.4278 73.021 52.336C74.505 50.4598 75.8088 48.8274 77.102 47.1844C79.4976 44.1422 81.6494 40.9622 82.349 37.0508C82.508 36.1816 82.4444 35.27 82.4868 34.3902C82.3596 34.3902 82.2324 34.369 82.0946 34.3584C81.6388 35.1004 81.2254 35.853 80.7378 36.5632C77.0596 41.8526 71.9292 45.4884 66.5656 48.838C66.184 49.0712 65.389 49.0712 65.0074 48.8274C63.5552 47.884 61.9334 47.0042 60.8628 45.7004C58.9336 43.3472 57.386 40.6866 55.6264 38.1956C54.8526 37.0932 54.047 35.9696 53.0612 35.0792C51.6514 33.8072 50.4854 34.2948 50.1462 36.1392C50.072 36.5208 50.0084 36.913 49.9554 37.3052C49.7434 39.0224 49.542 39.1814 47.7718 39.0648C44.7084 38.874 44.3692 39.2874 45.09 42.2766C45.514 44.0362 45.3868 44.3012 43.7862 44.9796C40.3518 46.4424 40.3306 46.453 42.387 49.6542C42.9488 50.534 42.9806 51.2336 42.1962 51.965C41.592 52.5374 41.0408 53.1522 40.4578 53.7458C39.6098 54.615 39.5992 55.5796 40.6274 56.1626C43.0548 57.5406 43.4046 59.385 42.4612 61.8548C41.9418 63.1904 42.5354 64.0596 43.9452 64.3882C45.1324 64.6638 46.3726 64.6956 47.5598 64.9606C49.224 65.3316 50.8564 65.8086 52.4994 66.2432L52.4888 66.2856Z" fill="#803E30"/>
<path d="M52.4888 66.2857C50.8458 65.8511 49.2134 65.3741 47.5492 65.0031C46.362 64.7381 45.1112 64.7063 43.9346 64.4307C42.5248 64.1021 41.9418 63.2329 42.4506 61.8973C43.4046 59.4169 43.0442 57.5831 40.6168 56.2051C39.5886 55.6221 39.5992 54.6575 40.4472 53.7883C41.0302 53.1947 41.5814 52.5693 42.1856 52.0075C42.97 51.2761 42.9382 50.5765 42.3764 49.6967C40.32 46.4955 40.3412 46.4849 43.7756 45.0221C45.3762 44.3437 45.5034 44.0787 45.0794 42.3191C44.3586 39.3299 44.7084 38.9165 47.7612 39.1073C49.5314 39.2239 49.7328 39.0543 49.9448 37.3477C49.9978 36.9555 50.0614 36.5739 50.1356 36.1817C50.4748 34.3373 51.6302 33.8391 53.0506 35.1217C54.0364 36.0121 54.842 37.1357 55.6158 38.2381C57.3754 40.7291 58.923 43.3897 60.8522 45.7429C61.9228 47.0467 63.5446 47.9159 64.9968 48.8699C65.3678 49.1137 66.1734 49.1243 66.555 48.8805C71.9186 45.5309 77.0384 41.8951 80.7272 36.6057C81.2254 35.8955 81.6388 35.1323 82.084 34.4009C82.2112 34.4009 82.3384 34.4221 82.4762 34.4327C82.4338 35.3231 82.4974 36.2347 82.3384 37.0933C81.6388 41.0047 79.487 44.1847 77.0914 47.2269C75.7982 48.8699 74.4944 50.5023 73.0104 52.3785C74.8972 53.4703 76.5932 54.4985 78.3528 55.4207C78.6708 55.5903 79.275 55.3465 79.6884 55.1663C83.78 53.4067 87.9458 51.7849 91.3908 48.8275C91.4968 48.7321 91.7088 48.7427 92.0692 48.6579C91.359 53.0781 88.3274 55.8341 85.4124 58.9505C88.6242 60.6359 91.2636 62.6605 91.359 66.5401C91.412 68.8615 90.8396 71.0133 89.557 73.3135C87.2038 70.6529 84.4372 69.7837 80.7484 71.2889C82.773 72.2641 84.522 73.0909 86.4088 74.0025C84.787 75.8045 82.8048 76.3769 80.6 76.2285C79.1266 76.1331 77.6638 75.8257 76.1904 75.6349C73.551 75.2957 70.9646 75.3593 68.516 76.6207C63.7778 79.0481 62.7496 85.0371 66.4172 88.9061C66.7034 89.2135 66.9896 89.5315 67.2652 89.8389C67.2334 89.9661 67.191 90.0933 67.1592 90.2205C65.548 90.0191 63.905 89.9449 62.3256 89.5845C53.6018 87.5917 46.6906 82.8853 41.539 75.5607C40.903 74.6597 40.9348 73.9283 41.4648 73.0485C43.7756 69.1689 47.2948 67.2927 51.6938 66.8899C51.9058 66.8687 52.1284 66.8475 52.3404 66.8369C52.3828 66.6673 52.4358 66.4977 52.4782 66.3281L52.4888 66.2857ZM72.9786 59.5229C71.8444 57.7103 70.053 57.0637 67.6256 57.5301C67.9542 59.6607 70.477 60.6359 72.9786 59.5229Z" fill="#4B2427"/>
<path d="M72.9675 59.5124C70.4659 60.6254 67.9431 59.6502 67.6145 57.5196C70.0525 57.0532 71.8333 57.6998 72.9675 59.5124Z" fill="#803E30"/>
</g>
<rect x="28" y="18" width="78" height="78" rx="14" stroke="#803E30" stroke-width="2" shape-rendering="crispEdges"/>
</g>
<defs>
<filter id="filter0_d_149_189" x="-2" y="0" width="138" height="138" filterUnits="userSpaceOnUse" color-interpolation-filters="sRGB">
<feFlood flood-opacity="0" result="BackgroundImageFix"/>
<feColorMatrix in="SourceAlpha" type="matrix" values="0 0 0 0 0 0 0 0 0 0 0 0 0 0 0 0 0 0 127 0" result="hardAlpha"/>
<feMorphology radius="11" operator="dilate" in="SourceAlpha" result="effect1_dropShadow_149_189"/>
<feOffset dy="12"/>
<feGaussianBlur stdDeviation="9"/>
<feComposite in2="hardAlpha" operator="out"/>
<feColorMatrix type="matrix" values="0 0 0 0 0.00392157 0 0 0 0 0.00784314 0 0 0 0 0.0392157 0 0 0 0.45 0"/>
<feBlend mode="normal" in2="BackgroundImageFix" result="effect1_dropShadow_149_189"/>
<feBlend mode="normal" in="SourceGraphic" in2="effect1_dropShadow_149_189" result="shape"/>
</filter>
<clipPath id="clip0_149_189">
<rect x="27" y="17" width="80" height="80" rx="15" fill="white"/>
</clipPath>
</defs>
</svg>
