<svg width="134" height="138" viewBox="0 0 134 138" fill="none" xmlns="http://www.w3.org/2000/svg">
<g filter="url(#filter0_d_149_154)">
<g clip-path="url(#clip0_149_154)">
<path d="M17 109V7H119V109H17ZM33.8402 57.3166C33.8198 75.9826 48.773 91.0378 67.3574 91.0684C86.0948 91.099 101.089 76.309 101.13 57.7552C101.17 39.0892 86.207 23.6872 68.0102 23.6974C49.1708 23.6974 33.8606 38.7628 33.8402 57.3268V57.3166Z" fill="#4B2427"/>
<path d="M33.8403 57.3164C33.8607 38.7626 49.1607 23.6972 68.0103 23.687C86.1969 23.687 101.171 39.0788 101.13 57.7448C101.089 76.2884 86.0949 91.0784 67.3575 91.058C48.7833 91.0376 33.8301 75.9722 33.8403 57.3062V57.3164ZM50.0889 82.082C50.0073 81.9086 49.9461 81.7148 49.8441 81.5618C45.1215 74.789 43.0713 67.3124 44.0811 59.1218C44.8053 53.2976 47.0697 48.0752 51.1701 43.781C54.5463 40.2416 58.5855 37.8446 63.6855 37.8548C66.4803 37.865 68.9895 38.6096 70.1421 41.5982C70.3461 42.1286 70.9275 42.5876 71.4477 42.9038C72.2433 43.3832 73.1307 43.6994 73.9773 44.087C75.5889 44.8418 76.1703 46.1576 75.6399 47.8304C75.0075 49.8092 72.9573 50.9006 70.4889 50.564C68.9793 50.36 67.4595 50.1152 65.9397 49.9622C63.0327 49.6562 60.3297 50.1356 58.1061 52.1756C55.4745 54.6032 54.5055 57.7142 54.6075 61.1822C54.7401 65.3438 56.8311 68.3834 60.7173 69.587C62.6655 70.1888 64.7973 70.199 66.8577 70.4336C69.5505 70.7396 72.3147 70.7294 74.9259 71.3312C79.9647 72.494 83.8509 75.503 86.9109 79.583C87.4311 80.2766 87.8493 80.5724 88.5939 79.7666C95.5503 72.239 98.4471 63.4466 97.1415 53.3078C95.2443 38.6606 82.8717 28.634 71.2539 27.563C60.4623 26.5736 51.4353 30.062 44.5401 38.2628C36.0945 48.3098 35.1765 62.2838 41.8473 73.5548C43.8873 77.0024 46.6311 79.8278 50.0685 82.0718L50.0889 82.082ZM61.3497 41.996C62.2677 43.3322 63.7671 43.8422 65.1033 43.3322C65.7153 43.0976 65.9295 42.761 65.3685 42.2408C64.4709 41.3942 62.4615 41.2514 61.3497 42.0062V41.996Z" fill="#803E30"/>
<path d="M50.0891 82.0924C46.6517 79.8484 43.9079 77.023 41.8679 73.5754C35.1971 62.3044 36.1151 48.3304 44.5607 38.2834C51.4559 30.0826 60.4829 26.5942 71.2745 27.5836C82.8923 28.6444 95.2649 38.6812 97.1621 53.3284C98.4779 63.4672 95.5811 72.2596 88.6145 79.7872C87.8699 80.593 87.4517 80.2972 86.9315 79.6036C83.8715 75.5236 79.9853 72.5146 74.9465 71.3518C72.3251 70.75 69.5711 70.7602 66.8783 70.4542C64.8179 70.2196 62.6861 70.2094 60.7379 69.6076C56.8517 68.4142 54.7607 65.3746 54.6281 61.2028C54.5159 57.7348 55.4849 54.6238 58.1267 52.1962C60.3401 50.1562 63.0533 49.6768 65.9603 49.9828C67.4801 50.146 68.9897 50.3806 70.5095 50.5846C72.9779 50.9212 75.0281 49.8298 75.6605 47.851C76.2011 46.1782 75.6197 44.8624 73.9979 44.1076C73.1513 43.7098 72.2639 43.4038 71.4683 42.9244C70.9481 42.6082 70.3667 42.1492 70.1627 41.6188C68.9999 38.6302 66.5009 37.8856 63.7061 37.8754C58.6163 37.855 54.5771 40.2622 51.1907 43.8016C47.0903 48.0958 44.8259 53.308 44.1017 59.1424C43.0817 67.3432 45.1421 74.8096 49.8647 81.5824C49.9769 81.7354 50.0279 81.9292 50.1095 82.1026L50.0891 82.0924Z" fill="#4B2427"/>
<path d="M61.3499 42.0063C62.4617 41.2515 64.4711 41.4045 65.3687 42.2409C65.9297 42.7611 65.7155 43.0977 65.1035 43.3323C63.7673 43.8423 62.2679 43.3323 61.3499 41.9961V42.0063Z" fill="#4B2427"/>
</g>
<rect x="28" y="18" width="78" height="78" rx="14" stroke="#803E30" stroke-width="2" shape-rendering="crispEdges"/>
</g>
<defs>
<filter id="filter0_d_149_154" x="-2" y="0" width="138" height="138" filterUnits="userSpaceOnUse" color-interpolation-filters="sRGB">
<feFlood flood-opacity="0" result="BackgroundImageFix"/>
<feColorMatrix in="SourceAlpha" type="matrix" values="0 0 0 0 0 0 0 0 0 0 0 0 0 0 0 0 0 0 127 0" result="hardAlpha"/>
<feMorphology radius="11" operator="dilate" in="SourceAlpha" result="effect1_dropShadow_149_154"/>
<feOffset dy="12"/>
<feGaussianBlur stdDeviation="9"/>
<feComposite in2="hardAlpha" operator="out"/>
<feColorMatrix type="matrix" values="0 0 0 0 0.00392157 0 0 0 0 0.00784314 0 0 0 0 0.0392157 0 0 0 0.45 0"/>
<feBlend mode="normal" in2="BackgroundImageFix" result="effect1_dropShadow_149_154"/>
<feBlend mode="normal" in="SourceGraphic" in2="effect1_dropShadow_149_154" result="shape"/>
</filter>
<clipPath id="clip0_149_154">
<rect x="27" y="17" width="80" height="80" rx="15" fill="white"/>
</clipPath>
</defs>
</svg>
