<svg width="134" height="138" viewBox="0 0 134 138" fill="none" xmlns="http://www.w3.org/2000/svg">
<g filter="url(#filter0_d_149_87)">
<g clip-path="url(#clip0_149_87)">
<path d="M117.817 6H14C14 42.5195 14 79.0499 14 115.569H123.569V6H117.817ZM43.1454 33.48C53.5436 23.0819 69.475 20.6385 82.3493 27.4756C95.2566 34.3237 103.891 49.773 99.234 67.9943C95.2128 65.277 91.2464 62.724 86.1624 63.6883C86.4253 62.0447 86.6554 60.6313 86.8855 59.2178C87.0718 58.0673 86.5459 57.7496 85.4721 57.9797C84.5407 58.1769 83.5108 58.155 82.6671 58.5385C81.5276 59.0644 80.5195 59.8862 79.2595 60.708C79.1718 60.6094 78.8541 60.2697 78.5363 59.93C78.2405 59.6013 77.9447 59.2726 77.6598 58.9439C77.7584 58.7576 77.7913 58.5933 77.8899 58.5385C81.1441 56.5772 81.5933 53.3997 81.6372 50.0469C81.6919 46.2558 81.6481 46.2229 77.9775 47.2748C74.0221 48.4033 73.1784 49.1046 71.5568 52.6546C71.25 52.5122 70.9213 52.3917 70.6254 52.2163C68.949 51.2631 68.9709 51.274 70.0447 49.6524C71.6116 47.2857 72.4005 44.6999 71.502 41.9278C70.6473 39.2762 69.6393 36.6685 68.5436 34.1045C67.9848 32.7787 67.3931 32.6363 66.3741 33.6443C64.1828 35.7919 62.0242 38.0052 60.1068 40.3719C58.9015 41.8511 58.8906 43.8233 59.0768 45.7079C59.1535 46.5078 59.2412 47.2967 59.3288 48.239C58.277 48.3047 57.3566 48.3705 56.3157 48.4472C56.3595 47.5377 56.4143 46.7817 56.4252 46.0366C56.4581 44.0206 55.9979 42.136 54.464 40.7335C52.8533 39.2762 51.133 37.9395 49.4347 36.5808C48.6458 35.9563 48.0213 36.1316 47.6487 37.1067C46.7284 39.4953 45.6875 41.862 44.8657 44.2835C44.1864 46.2667 44.6137 48.2061 45.6765 50.014C46.7831 51.9095 46.7284 52.0301 44.6027 52.9066C44.526 52.8628 44.4164 52.8299 44.3836 52.7642C42.9592 49.499 39.946 49.247 36.9657 48.8964C35.9906 48.7868 35.4427 49.1922 35.4975 50.1674C35.618 52.4136 35.618 54.6926 36.0234 56.895C36.2316 58.0345 37.2177 59.0316 37.9957 60.3464C36.8781 61.968 35.5852 63.8307 34.1608 65.8796C31.4325 57.136 33.1308 43.4727 43.1345 33.48H43.1454ZM87.9483 75.0068C85.8994 74.952 83.8176 74.6781 81.8125 74.9301C78.361 75.3683 75.578 77.0119 74.3946 80.4852C73.3647 83.4874 74.7452 87.1142 77.4626 88.944C77.8351 89.196 78.2076 89.4261 78.8322 89.8425C77.1229 90.7628 75.6656 91.3326 73.9125 90.7081C69.4092 89.1083 67.3164 85.6788 66.5714 81.2522C66.407 80.2442 66.4728 79.1814 66.5166 78.1514C66.5495 77.4063 66.3303 77.0995 65.5524 77.0228C62.583 76.738 59.7233 77.0995 57.0279 78.4034C52.1959 80.7482 51.0016 84.5612 53.7737 89.7C48.4705 87.158 44.1206 83.9805 40.6692 79.6415C38.3682 76.7489 36.5713 73.5714 35.3551 70.0871C35.2126 69.6598 35.2345 68.9914 35.4865 68.6517C37.0315 66.5371 38.7408 64.5319 40.2528 62.3953C42.5647 59.0973 45.0958 56.0403 48.6787 54.0352C56.2828 49.7839 65.3223 50.9563 71.9293 57.0593C73.3866 58.407 74.6905 59.941 76.0053 61.4311C78.0433 63.743 80.158 65.9344 83.445 66.3289C84.5736 66.4604 85.735 66.4932 86.8526 66.3727C89.8549 66.055 92.5503 66.7233 94.9827 68.4983C95.8593 69.1339 96.8235 69.6817 97.6671 70.361C98.9272 71.38 98.8505 72.3881 97.3713 73.0674C94.402 74.437 91.2573 75.1054 87.9593 75.0177L87.9483 75.0068ZM95.147 76.9461C92.4188 81.0988 89.1974 84.364 85.2091 86.8512C84.7818 87.1142 83.8943 87.1909 83.5217 86.9389C81.4618 85.5035 80.1032 83.5751 79.9388 81.0002C79.8183 79.1485 80.4209 78.261 82.2398 77.9104C83.4341 77.6803 84.6941 77.5926 85.8994 77.7131C88.7592 77.9761 91.5422 77.7789 94.2814 76.9681C94.4677 76.9133 94.6869 76.9681 95.147 76.9681V76.9461Z" fill="#803E30"/>
<path d="M99.2337 68.0057C95.2125 65.2884 91.2461 62.7354 86.1621 63.6996C86.4251 62.0561 86.6552 60.6426 86.8853 59.2292C87.0715 58.0787 86.5456 57.7609 85.4718 57.991C84.5405 58.1883 83.5105 58.1664 82.6669 58.5498C81.5273 59.0758 80.5193 59.8975 79.2593 60.7193C79.1716 60.6207 78.8538 60.281 78.5361 59.9414C78.2403 59.6127 77.9444 59.284 77.6595 58.9553C77.7581 58.769 77.791 58.6046 77.8896 58.5498C81.1438 56.5886 81.5931 53.411 81.6369 50.0582C81.6917 46.2671 81.6479 46.2343 77.9773 47.2861C74.0218 48.4147 73.1782 49.1159 71.5565 52.666C71.2497 52.5235 70.921 52.403 70.6252 52.2277C68.9488 51.2744 68.9707 51.2854 70.0445 49.6638C71.6113 47.2971 72.4002 44.7112 71.5017 41.9391C70.6471 39.2876 69.6391 36.6798 68.5434 34.1159C67.9846 32.7901 67.3929 32.6477 66.3739 33.6557C64.1825 35.8033 62.024 38.0166 60.1065 40.3832C58.9013 41.8624 58.8903 43.8347 59.0766 45.7193C59.1533 46.5191 59.2409 47.308 59.3286 48.2503C58.2767 48.3161 57.3563 48.3818 56.3154 48.4585C56.3593 47.5491 56.414 46.7931 56.425 46.048C56.4579 44.0319 55.9977 42.1473 54.4637 40.7448C52.864 39.2876 51.1328 37.9508 49.4345 36.5922C48.6456 35.9676 48.021 36.1429 47.6485 37.1181C46.7281 39.5067 45.6872 41.8734 44.8654 44.2949C44.1861 46.2781 44.6134 48.2175 45.6762 50.0254C46.7829 51.9209 46.7281 52.0414 44.6025 52.918C44.5258 52.8742 44.4162 52.8413 44.3833 52.7755C42.9589 49.5104 39.9458 49.2584 36.9655 48.9077C35.9903 48.7982 35.4425 49.2036 35.4973 50.1787C35.6178 52.4249 35.6178 54.704 36.0232 56.9063C36.2314 58.0458 37.2175 59.0429 37.9954 60.3577C36.8778 61.9794 35.5849 63.842 34.1605 65.891C31.4322 57.1474 33.1306 43.4841 43.1342 33.4913C53.5324 23.0932 69.4637 20.6498 82.3381 27.4869C95.2454 34.335 103.879 49.7843 99.2228 68.0057H99.2337Z" fill="#4B2427"/>
<path d="M53.7735 89.6999C48.4704 87.1579 44.1205 83.9804 40.669 79.6415C38.3681 76.7488 36.5711 73.5713 35.3549 70.087C35.2125 69.6597 35.2344 68.9913 35.4864 68.6517C37.0313 66.537 38.7406 64.5319 40.2527 62.3953C42.5646 59.0972 45.0956 56.0402 48.6786 54.0351C56.2827 49.7838 65.3221 50.9562 71.9292 57.0592C73.3864 58.4069 74.6903 59.9409 76.0051 61.4311C78.0431 63.743 80.1578 65.9344 83.4449 66.3288C84.5735 66.4603 85.7349 66.4932 86.8525 66.3726C89.8547 66.0549 92.5501 66.7233 94.9826 68.4983C95.8591 69.1338 96.8233 69.6816 97.667 70.361C98.9271 71.3799 98.8503 72.388 97.3712 73.0673C94.4018 74.4369 91.2572 75.1053 87.9592 75.0177C85.9102 74.9629 83.8284 74.6889 81.8233 74.941C78.3718 75.3792 75.5888 77.0228 74.4054 80.4961C73.3755 83.4983 74.7561 87.1251 77.4734 88.9549C77.8459 89.2069 78.2184 89.437 78.843 89.8533C77.1337 90.7737 75.6764 91.3435 73.9233 90.7189C69.42 89.1192 67.3273 85.6897 66.5822 81.2631C66.4178 80.2551 66.4836 79.1922 66.5274 78.1623C66.5603 77.4172 66.3411 77.1104 65.5632 77.0337C62.5939 76.7488 59.7341 77.1104 57.0387 78.4143C52.2067 80.7591 51.0124 84.5721 53.7845 89.7109L53.7735 89.6999ZM88.518 68.6845C88.9782 70.613 90.2382 71.0184 91.8379 69.8131C90.6765 69.4187 89.7561 69.1009 88.518 68.6845Z" fill="#4B2427"/>
<path d="M95.1473 76.9463C92.4191 81.099 89.1977 84.3641 85.2094 86.8514C84.7821 87.1143 83.8946 87.191 83.522 86.939C81.4621 85.5037 80.1035 83.5752 79.9391 81.0003C79.8186 79.1486 80.4212 78.2611 82.2401 77.9105C83.4344 77.6804 84.6944 77.5927 85.8997 77.7133C88.7594 77.9762 91.5425 77.779 94.2817 76.9682C94.468 76.9134 94.6871 76.9682 95.1473 76.9682V76.9463Z" fill="#4B2427"/>
<path d="M88.5183 68.6846C89.7455 69.1009 90.6768 69.4187 91.8383 69.8131C90.2495 71.0184 88.9895 70.613 88.5183 68.6846Z" fill="#803E30"/>
</g>
<rect x="28" y="18" width="78" height="78" rx="14" stroke="#4B2427" stroke-width="2" shape-rendering="crispEdges"/>
</g>
<defs>
<filter id="filter0_d_149_87" x="-2" y="0" width="138" height="138" filterUnits="userSpaceOnUse" color-interpolation-filters="sRGB">
<feFlood flood-opacity="0" result="BackgroundImageFix"/>
<feColorMatrix in="SourceAlpha" type="matrix" values="0 0 0 0 0 0 0 0 0 0 0 0 0 0 0 0 0 0 127 0" result="hardAlpha"/>
<feMorphology radius="11" operator="dilate" in="SourceAlpha" result="effect1_dropShadow_149_87"/>
<feOffset dy="12"/>
<feGaussianBlur stdDeviation="9"/>
<feComposite in2="hardAlpha" operator="out"/>
<feColorMatrix type="matrix" values="0 0 0 0 0.00392157 0 0 0 0 0.00784314 0 0 0 0 0.0392157 0 0 0 0.45 0"/>
<feBlend mode="normal" in2="BackgroundImageFix" result="effect1_dropShadow_149_87"/>
<feBlend mode="normal" in="SourceGraphic" in2="effect1_dropShadow_149_87" result="shape"/>
</filter>
<clipPath id="clip0_149_87">
<rect x="27" y="17" width="80" height="80" rx="15" fill="white"/>
</clipPath>
</defs>
</svg>
